{
  "asset": {
    "version": "2.0",
    "generator": "LOFT_UI low-poly fixed-wing generator"
  },
  "scene": 0,
  "scenes": [
    {
      "name": "Scene",
      "nodes": [
        0
      ]
    }
  ],
  "nodes": [
    {
      "name": "FixedWing",
      "mesh": 0
    }
  ],
  "meshes": [
    {
      "name": "FixedWing",
      "primitives": [
        {
          "attributes": {
            "POSITION": 0,
            "NORMAL": 1
          },
          "indices": 2,
          "material": 0,
          "mode": 4
        },
        {
          "attributes": {
            "POSITION": 3,
            "NORMAL": 4
          },
          "indices": 5,
          "material": 1,
          "mode": 4
        },
        {
          "attributes": {
            "POSITION": 6,
            "NORMAL": 7
          },
          "indices": 8,
          "material": 2,
          "mode": 4
        },
        {
          "attributes": {
            "POSITION": 9,
            "NORMAL": 10
          },
          "indices": 11,
          "material": 3,
          "mode": 4
        },
        {
          "attributes": {
            "POSITION": 12,
            "NORMAL": 13
          },
          "indices": 14,
          "material": 4,
          "mode": 4
        },
        {
          "attributes": {
            "POSITION": 15,
            "NORMAL": 16
          },
          "indices": 17,
          "material": 5,
          "mode": 4
        },
        {
          "attributes": {
            "POSITION": 18,
            "NORMAL": 19
          },
          "indices": 20,
          "material": 6,
          "mode": 4
        }
      ]
    }
  ],
  "materials": [
    {
      "name": "body",
      "pbrMetallicRoughness": {
        "baseColorFactor": [
          0.2,
          0.2,
          0.22,
          1.0
        ],
        "metallicFactor": 0.2,
        "roughnessFactor": 0.7
      }
    },
    {
      "name": "cargo",
      "pbrMetallicRoughness": {
        "baseColorFactor": [
          0.78,
          0.55,
          0.3,
          1.0
        ],
        "metallicFactor": 0.05,
        "roughnessFactor": 0.85
      }
    },
    {
      "name": "tape",
      "pbrMetallicRoughness": {
        "baseColorFactor": [
          0.92,
          0.82,
          0.55,
          1.0
        ],
        "metallicFactor": 0.05,
        "roughnessFactor": 0.75
      }
    },
    {
      "name": "boom",
      "pbrMetallicRoughness": {
        "baseColorFactor": [
          0.32,
          0.32,
          0.34,
          1.0
        ],
        "metallicFactor": 0.2,
        "roughnessFactor": 0.7
      }
    },
    {
      "name": "motor",
      "pbrMetallicRoughness": {
        "baseColorFactor": [
          0.08,
          0.08,
          0.1,
          1.0
        ],
        "metallicFactor": 0.6,
        "roughnessFactor": 0.4
      }
    },
    {
      "name": "prop_disc",
      "pbrMetallicRoughness": {
        "baseColorFactor": [
          0.78,
          0.8,
          0.84,
          0.45
        ],
        "metallicFactor": 0.05,
        "roughnessFactor": 0.85
      },
      "alphaMode": "BLEND",
      "doubleSided": true
    },
    {
      "name": "nose",
      "pbrMetallicRoughness": {
        "baseColorFactor": [
          0.85,
          0.15,
          0.15,
          1.0
        ],
        "metallicFactor": 0.1,
        "roughnessFactor": 0.55
      }
    }
  ],
  "accessors": [
    {
      "bufferView": 0,
      "componentType": 5126,
      "count": 72,
      "type": "VEC3",
      "min": [
        -0.5,
        -0.045,
        -0.2
      ],
      "max": [
        0.5,
        0.075,
        0.46
      ]
    },
    {
      "bufferView": 1,
      "componentType": 5126,
      "count": 72,
      "type": "VEC3"
    },
    {
      "bufferView": 2,
      "componentType": 5123,
      "count": 108,
      "type": "SCALAR"
    },
    {
      "bufferView": 3,
      "componentType": 5126,
      "count": 24,
      "type": "VEC3",
      "min": [
        -0.075,
        -0.165,
        -0.11
      ],
      "max": [
        0.075,
        -0.035,
        0.09
      ]
    },
    {
      "bufferView": 4,
      "componentType": 5126,
      "count": 24,
      "type": "VEC3"
    },
    {
      "bufferView": 5,
      "componentType": 5123,
      "count": 36,
      "type": "SCALAR"
    },
    {
      "bufferView": 6,
      "componentType": 5126,
      "count": 48,
      "type": "VEC3",
      "min": [
        -0.077,
        -0.167,
        -0.112
      ],
      "max": [
        0.077,
        -0.033,
        0.092
      ]
    },
    {
      "bufferView": 7,
      "componentType": 5126,
      "count": 48,
      "type": "VEC3"
    },
    {
      "bufferView": 8,
      "componentType": 5123,
      "count": 72,
      "type": "SCALAR"
    },
    {
      "bufferView": 9,
      "componentType": 5126,
      "count": 48,
      "type": "VEC3",
      "min": [
        -0.185,
        -0.02,
        -0.02
      ],
      "max": [
        0.185,
        0.02,
        0.4
      ]
    },
    {
      "bufferView": 10,
      "componentType": 5126,
      "count": 48,
      "type": "VEC3"
    },
    {
      "bufferView": 11,
      "componentType": 5123,
      "count": 72,
      "type": "SCALAR"
    },
    {
      "bufferView": 12,
      "componentType": 5126,
      "count": 24,
      "type": "VEC3",
      "min": [
        -0.045,
        -0.04,
        0.18
      ],
      "max": [
        0.045,
        0.04,
        0.235
      ]
    },
    {
      "bufferView": 13,
      "componentType": 5126,
      "count": 24,
      "type": "VEC3"
    },
    {
      "bufferView": 14,
      "componentType": 5123,
      "count": 36,
      "type": "SCALAR"
    },
    {
      "bufferView": 15,
      "componentType": 5126,
      "count": 98,
      "type": "VEC3",
      "min": [
        -0.14,
        -0.14,
        0.239
      ],
      "max": [
        0.14,
        0.14,
        0.251
      ]
    },
    {
      "bufferView": 16,
      "componentType": 5126,
      "count": 98,
      "type": "VEC3"
    },
    {
      "bufferView": 17,
      "componentType": 5123,
      "count": 192,
      "type": "SCALAR"
    },
    {
      "bufferView": 18,
      "componentType": 5126,
      "count": 24,
      "type": "VEC3",
      "min": [
        -0.06,
        -0.05,
        -0.27
      ],
      "max": [
        0.06,
        0.05,
        -0.2
      ]
    },
    {
      "bufferView": 19,
      "componentType": 5126,
      "count": 24,
      "type": "VEC3"
    },
    {
      "bufferView": 20,
      "componentType": 5123,
      "count": 36,
      "type": "SCALAR"
    }
  ],
  "bufferViews": [
    {
      "buffer": 0,
      "byteOffset": 0,
      "byteLength": 864,
      "target": 34962
    },
    {
      "buffer": 0,
      "byteOffset": 864,
      "byteLength": 864,
      "target": 34962
    },
    {
      "buffer": 0,
      "byteOffset": 1728,
      "byteLength": 216,
      "target": 34963
    },
    {
      "buffer": 0,
      "byteOffset": 1944,
      "byteLength": 288,
      "target": 34962
    },
    {
      "buffer": 0,
      "byteOffset": 2232,
      "byteLength": 288,
      "target": 34962
    },
    {
      "buffer": 0,
      "byteOffset": 2520,
      "byteLength": 72,
      "target": 34963
    },
    {
      "buffer": 0,
      "byteOffset": 2592,
      "byteLength": 576,
      "target": 34962
    },
    {
      "buffer": 0,
      "byteOffset": 3168,
      "byteLength": 576,
      "target": 34962
    },
    {
      "buffer": 0,
      "byteOffset": 3744,
      "byteLength": 144,
      "target": 34963
    },
    {
      "buffer": 0,
      "byteOffset": 3888,
      "byteLength": 576,
      "target": 34962
    },
    {
      "buffer": 0,
      "byteOffset": 4464,
      "byteLength": 576,
      "target": 34962
    },
    {
      "buffer": 0,
      "byteOffset": 5040,
      "byteLength": 144,
      "target": 34963
    },
    {
      "buffer": 0,
      "byteOffset": 5184,
      "byteLength": 288,
      "target": 34962
    },
    {
      "buffer": 0,
      "byteOffset": 5472,
      "byteLength": 288,
      "target": 34962
    },
    {
      "buffer": 0,
      "byteOffset": 5760,
      "byteLength": 72,
      "target": 34963
    },
    {
      "buffer": 0,
      "byteOffset": 5832,
      "byteLength": 1176,
      "target": 34962
    },
    {
      "buffer": 0,
      "byteOffset": 7008,
      "byteLength": 1176,
      "target": 34962
    },
    {
      "buffer": 0,
      "byteOffset": 8184,
      "byteLength": 384,
      "target": 34963
    },
    {
      "buffer": 0,
      "byteOffset": 8568,
      "byteLength": 288,
      "target": 34962
    },
    {
      "buffer": 0,
      "byteOffset": 8856,
      "byteLength": 288,
      "target": 34962
    },
    {
      "buffer": 0,
      "byteOffset": 9144,
      "byteLength": 72,
      "target": 34963
    }
  ],
  "buffers": [
    {
      "byteLength": 9216,
      "uri": "data:application/octet-stream;base64,"
    }
  ]
}