{
  "asset": {
    "version": "2.0",
    "generator": "LOFT_UI low-poly quadrotor generator"
  },
  "scene": 0,
  "scenes": [
    {
      "name": "Scene",
      "nodes": [
        0
      ]
    }
  ],
  "nodes": [
    {
      "name": "Quadrotor",
      "mesh": 0
    }
  ],
  "meshes": [
    {
      "name": "Quadrotor",
      "primitives": [
        {
          "attributes": {
            "POSITION": 0,
            "NORMAL": 1
          },
          "indices": 2,
          "material": 0,
          "mode": 4
        },
        {
          "attributes": {
            "POSITION": 3,
            "NORMAL": 4
          },
          "indices": 5,
          "material": 1,
          "mode": 4
        },
        {
          "attributes": {
            "POSITION": 6,
            "NORMAL": 7
          },
          "indices": 8,
          "material": 2,
          "mode": 4
        },
        {
          "attributes": {
            "POSITION": 9,
            "NORMAL": 10
          },
          "indices": 11,
          "material": 3,
          "mode": 4
        },
        {
          "attributes": {
            "POSITION": 12,
            "NORMAL": 13
          },
          "indices": 14,
          "material": 4,
          "mode": 4
        },
        {
          "attributes": {
            "POSITION": 15,
            "NORMAL": 16
          },
          "indices": 17,
          "material": 5,
          "mode": 4
        },
        {
          "attributes": {
            "POSITION": 18,
            "NORMAL": 19
          },
          "indices": 20,
          "material": 6,
          "mode": 4
        },
        {
          "attributes": {
            "POSITION": 21,
            "NORMAL": 22
          },
          "indices": 23,
          "material": 7,
          "mode": 4
        }
      ]
    }
  ],
  "materials": [
    {
      "name": "body",
      "pbrMetallicRoughness": {
        "baseColorFactor": [
          0.2,
          0.2,
          0.22,
          1.0
        ],
        "metallicFactor": 0.2,
        "roughnessFactor": 0.7
      }
    },
    {
      "name": "front",
      "pbrMetallicRoughness": {
        "baseColorFactor": [
          0.85,
          0.15,
          0.15,
          1.0
        ],
        "metallicFactor": 0.1,
        "roughnessFactor": 0.55
      }
    },
    {
      "name": "arm",
      "pbrMetallicRoughness": {
        "baseColorFactor": [
          0.32,
          0.32,
          0.34,
          1.0
        ],
        "metallicFactor": 0.2,
        "roughnessFactor": 0.7
      }
    },
    {
      "name": "motor",
      "pbrMetallicRoughness": {
        "baseColorFactor": [
          0.08,
          0.08,
          0.1,
          1.0
        ],
        "metallicFactor": 0.6,
        "roughnessFactor": 0.4
      }
    },
    {
      "name": "prop_disc",
      "pbrMetallicRoughness": {
        "baseColorFactor": [
          0.78,
          0.8,
          0.84,
          0.45
        ],
        "metallicFactor": 0.05,
        "roughnessFactor": 0.85
      },
      "alphaMode": "BLEND",
      "doubleSided": true
    },
    {
      "name": "strut",
      "pbrMetallicRoughness": {
        "baseColorFactor": [
          0.15,
          0.15,
          0.17,
          1.0
        ],
        "metallicFactor": 0.5,
        "roughnessFactor": 0.45
      }
    },
    {
      "name": "cargo",
      "pbrMetallicRoughness": {
        "baseColorFactor": [
          0.78,
          0.55,
          0.3,
          1.0
        ],
        "metallicFactor": 0.05,
        "roughnessFactor": 0.85
      }
    },
    {
      "name": "tape",
      "pbrMetallicRoughness": {
        "baseColorFactor": [
          0.92,
          0.82,
          0.55,
          1.0
        ],
        "metallicFactor": 0.05,
        "roughnessFactor": 0.75
      }
    }
  ],
  "accessors": [
    {
      "bufferView": 0,
      "componentType": 5126,
      "count": 24,
      "type": "VEC3",
      "min": [
        -0.15,
        -0.04,
        -0.15
      ],
      "max": [
        0.15,
        0.04,
        0.15
      ]
    },
    {
      "bufferView": 1,
      "componentType": 5126,
      "count": 24,
      "type": "VEC3"
    },
    {
      "bufferView": 2,
      "componentType": 5123,
      "count": 36,
      "type": "SCALAR"
    },
    {
      "bufferView": 3,
      "componentType": 5126,
      "count": 24,
      "type": "VEC3",
      "min": [
        -0.045,
        -0.022,
        -0.17
      ],
      "max": [
        0.045,
        0.022,
        -0.15
      ]
    },
    {
      "bufferView": 4,
      "componentType": 5126,
      "count": 24,
      "type": "VEC3"
    },
    {
      "bufferView": 5,
      "componentType": 5123,
      "count": 36,
      "type": "SCALAR"
    },
    {
      "bufferView": 6,
      "componentType": 5126,
      "count": 96,
      "type": "VEC3",
      "min": [
        -0.3712310601229375,
        -0.015,
        -0.3712310601229375
      ],
      "max": [
        0.37123106012293755,
        0.015,
        0.37123106012293755
      ]
    },
    {
      "bufferView": 7,
      "componentType": 5126,
      "count": 96,
      "type": "VEC3"
    },
    {
      "bufferView": 8,
      "componentType": 5123,
      "count": 144,
      "type": "SCALAR"
    },
    {
      "bufferView": 9,
      "componentType": 5126,
      "count": 96,
      "type": "VEC3",
      "min": [
        -0.4101219330881976,
        -0.025,
        -0.4101219330881976
      ],
      "max": [
        0.41012193308819767,
        0.045,
        0.41012193308819767
      ]
    },
    {
      "bufferView": 10,
      "componentType": 5126,
      "count": 96,
      "type": "VEC3"
    },
    {
      "bufferView": 11,
      "componentType": 5123,
      "count": 144,
      "type": "SCALAR"
    },
    {
      "bufferView": 12,
      "componentType": 5126,
      "count": 392,
      "type": "VEC3",
      "min": [
        -0.5135533905932738,
        0.05,
        -0.5135533905932738
      ],
      "max": [
        0.5135533905932739,
        0.06,
        0.5135533905932739
      ]
    },
    {
      "bufferView": 13,
      "componentType": 5126,
      "count": 392,
      "type": "VEC3"
    },
    {
      "bufferView": 14,
      "componentType": 5123,
      "count": 768,
      "type": "SCALAR"
    },
    {
      "bufferView": 15,
      "componentType": 5126,
      "count": 96,
      "type": "VEC3",
      "min": [
        -0.09,
        -0.115,
        -0.075
      ],
      "max": [
        0.09,
        -0.04,
        0.075
      ]
    },
    {
      "bufferView": 16,
      "componentType": 5126,
      "count": 96,
      "type": "VEC3"
    },
    {
      "bufferView": 17,
      "componentType": 5123,
      "count": 144,
      "type": "SCALAR"
    },
    {
      "bufferView": 18,
      "componentType": 5126,
      "count": 24,
      "type": "VEC3",
      "min": [
        -0.1,
        -0.22,
        -0.1
      ],
      "max": [
        0.1,
        -0.11,
        0.1
      ]
    },
    {
      "bufferView": 19,
      "componentType": 5126,
      "count": 24,
      "type": "VEC3"
    },
    {
      "bufferView": 20,
      "componentType": 5123,
      "count": 36,
      "type": "SCALAR"
    },
    {
      "bufferView": 21,
      "componentType": 5126,
      "count": 48,
      "type": "VEC3",
      "min": [
        -0.101,
        -0.219,
        -0.101
      ],
      "max": [
        0.101,
        -0.111,
        0.101
      ]
    },
    {
      "bufferView": 22,
      "componentType": 5126,
      "count": 48,
      "type": "VEC3"
    },
    {
      "bufferView": 23,
      "componentType": 5123,
      "count": 72,
      "type": "SCALAR"
    }
  ],
  "bufferViews": [
    {
      "buffer": 0,
      "byteOffset": 0,
      "byteLength": 288,
      "target": 34962
    },
    {
      "buffer": 0,
      "byteOffset": 288,
      "byteLength": 288,
      "target": 34962
    },
    {
      "buffer": 0,
      "byteOffset": 576,
      "byteLength": 72,
      "target": 34963
    },
    {
      "buffer": 0,
      "byteOffset": 648,
      "byteLength": 288,
      "target": 34962
    },
    {
      "buffer": 0,
      "byteOffset": 936,
      "byteLength": 288,
      "target": 34962
    },
    {
      "buffer": 0,
      "byteOffset": 1224,
      "byteLength": 72,
      "target": 34963
    },
    {
      "buffer": 0,
      "byteOffset": 1296,
      "byteLength": 1152,
      "target": 34962
    },
    {
      "buffer": 0,
      "byteOffset": 2448,
      "byteLength": 1152,
      "target": 34962
    },
    {
      "buffer": 0,
      "byteOffset": 3600,
      "byteLength": 288,
      "target": 34963
    },
    {
      "buffer": 0,
      "byteOffset": 3888,
      "byteLength": 1152,
      "target": 34962
    },
    {
      "buffer": 0,
      "byteOffset": 5040,
      "byteLength": 1152,
      "target": 34962
    },
    {
      "buffer": 0,
      "byteOffset": 6192,
      "byteLength": 288,
      "target": 34963
    },
    {
      "buffer": 0,
      "byteOffset": 6480,
      "byteLength": 4704,
      "target": 34962
    },
    {
      "buffer": 0,
      "byteOffset": 11184,
      "byteLength": 4704,
      "target": 34962
    },
    {
      "buffer": 0,
      "byteOffset": 15888,
      "byteLength": 1536,
      "target": 34963
    },
    {
      "buffer": 0,
      "byteOffset": 17424,
      "byteLength": 1152,
      "target": 34962
    },
    {
      "buffer": 0,
      "byteOffset": 18576,
      "byteLength": 1152,
      "target": 34962
    },
    {
      "buffer": 0,
      "byteOffset": 19728,
      "byteLength": 288,
      "target": 34963
    },
    {
      "buffer": 0,
      "byteOffset": 20016,
      "byteLength": 288,
      "target": 34962
    },
    {
      "buffer": 0,
      "byteOffset": 20304,
      "byteLength": 288,
      "target": 34962
    },
    {
      "buffer": 0,
      "byteOffset": 20592,
      "byteLength": 72,
      "target": 34963
    },
    {
      "buffer": 0,
      "byteOffset": 20664,
      "byteLength": 576,
      "target": 34962
    },
    {
      "buffer": 0,
      "byteOffset": 21240,
      "byteLength": 576,
      "target": 34962
    },
    {
      "buffer": 0,
      "byteOffset": 21816,
      "byteLength": 144,
      "target": 34963
    }
  ],
  "buffers": [
    {
      "byteLength": 21960,
      "uri": "data:application/octet-stream;base64,"
    }
  ]
}